<svg width="80" height="82" viewBox="0 0 80 82" fill="none" xmlns="http://www.w3.org/2000/svg">
<rect width="80" height="80" fill="white"/>
<path d="M8.65341 2.72727H9.53409V7.54261C9.53409 8.03977 9.4169 8.48366 9.18253 8.87429C8.95052 9.26255 8.62263 9.56913 8.19886 9.79403C7.77509 10.0166 7.27794 10.1278 6.70739 10.1278C6.13684 10.1278 5.63968 10.0166 5.21591 9.79403C4.79214 9.56913 4.46307 9.26255 4.22869 8.87429C3.99669 8.48366 3.88068 8.03977 3.88068 7.54261V2.72727H4.76136V7.47159C4.76136 7.8267 4.83949 8.14276 4.99574 8.41974C5.15199 8.69437 5.37453 8.91098 5.66335 9.0696C5.95455 9.22585 6.30256 9.30398 6.70739 9.30398C7.11222 9.30398 7.46023 9.22585 7.75142 9.0696C8.04261 8.91098 8.26515 8.69437 8.41903 8.41974C8.57528 8.14276 8.65341 7.8267 8.65341 7.47159V2.72727ZM12.1735 2.72727V10H11.2928V2.72727H12.1735Z" fill="#7B1FA2"/>
<path d="M15.2273 60V25.0909H19.4545V56.25H35.6818V60H15.2273ZM61.3182 33.8182C61.1136 32.0909 60.2841 30.75 58.8295 29.7955C57.375 28.8409 55.5909 28.3636 53.4773 28.3636C51.9318 28.3636 50.5795 28.6136 49.4205 29.1136C48.2727 29.6136 47.375 30.3011 46.7273 31.1761C46.0909 32.0511 45.7727 33.0455 45.7727 34.1591C45.7727 35.0909 45.9943 35.892 46.4375 36.5625C46.892 37.2216 47.4716 37.7727 48.1761 38.2159C48.8807 38.6477 49.6193 39.0057 50.392 39.2898C51.1648 39.5625 51.875 39.7841 52.5227 39.9545L56.0682 40.9091C56.9773 41.1477 57.9886 41.4773 59.1023 41.8977C60.2273 42.3182 61.3011 42.892 62.3239 43.6193C63.358 44.3352 64.2102 45.2557 64.8807 46.3807C65.5511 47.5057 65.8864 48.8864 65.8864 50.5227C65.8864 52.4091 65.392 54.1136 64.4034 55.6364C63.4261 57.1591 61.9943 58.3693 60.108 59.267C58.233 60.1648 55.9545 60.6136 53.2727 60.6136C50.7727 60.6136 48.608 60.2102 46.7784 59.4034C44.9602 58.5966 43.5284 57.4716 42.483 56.0284C41.4489 54.5852 40.8636 52.9091 40.7273 51H45.0909C45.2045 52.3182 45.6477 53.4091 46.4205 54.2727C47.2045 55.125 48.1932 55.7614 49.3864 56.1818C50.5909 56.5909 51.8864 56.7955 53.2727 56.7955C54.8864 56.7955 56.3352 56.5341 57.6193 56.0114C58.9034 55.4773 59.9205 54.7386 60.6705 53.7955C61.4205 52.8409 61.7955 51.7273 61.7955 50.4545C61.7955 49.2955 61.4716 48.3523 60.8239 47.625C60.1761 46.8977 59.3239 46.3068 58.267 45.8523C57.2102 45.3977 56.0682 45 54.8409 44.6591L50.5455 43.4318C47.8182 42.6477 45.6591 41.5284 44.0682 40.0739C42.4773 38.6193 41.6818 36.7159 41.6818 34.3636C41.6818 32.4091 42.2102 30.7045 43.267 29.25C44.3352 27.7841 45.767 26.6477 47.5625 25.8409C49.3693 25.0227 51.3864 24.6136 53.6136 24.6136C55.8636 24.6136 57.8636 25.017 59.6136 25.8239C61.3636 26.6193 62.75 27.7102 63.7727 29.0966C64.8068 30.483 65.3523 32.0568 65.4091 33.8182H61.3182Z" fill="#7B1FA2"/>
<path d="M8.88068 80V72.7273H9.76136V79.2188H13.142V80H8.88068ZM20.3588 76.3636C20.3588 77.1307 20.2203 77.7936 19.9434 78.3523C19.6664 78.911 19.2864 79.3419 18.8034 79.6449C18.3205 79.9479 17.7689 80.0994 17.1486 80.0994C16.5284 80.0994 15.9767 79.9479 15.4938 79.6449C15.0108 79.3419 14.6309 78.911 14.3539 78.3523C14.0769 77.7936 13.9384 77.1307 13.9384 76.3636C13.9384 75.5966 14.0769 74.9337 14.3539 74.375C14.6309 73.8163 15.0108 73.3854 15.4938 73.0824C15.9767 72.7794 16.5284 72.6278 17.1486 72.6278C17.7689 72.6278 18.3205 72.7794 18.8034 73.0824C19.2864 73.3854 19.6664 73.8163 19.9434 74.375C20.2203 74.9337 20.3588 75.5966 20.3588 76.3636ZM19.5066 76.3636C19.5066 75.7339 19.4012 75.2024 19.1905 74.7692C18.9822 74.3359 18.6993 74.008 18.3418 73.7855C17.9867 73.563 17.589 73.4517 17.1486 73.4517C16.7083 73.4517 16.3094 73.563 15.9519 73.7855C15.5968 74.008 15.3139 74.3359 15.1032 74.7692C14.8948 75.2024 14.7907 75.7339 14.7907 76.3636C14.7907 76.9934 14.8948 77.5249 15.1032 77.9581C15.3139 78.3913 15.5968 78.7192 15.9519 78.9418C16.3094 79.1643 16.7083 79.2756 17.1486 79.2756C17.589 79.2756 17.9867 79.1643 18.3418 78.9418C18.6993 78.7192 18.9822 78.3913 19.1905 77.9581C19.4012 77.5249 19.5066 76.9934 19.5066 76.3636ZM27.6919 75H26.8113C26.7592 74.7467 26.668 74.5241 26.5378 74.3324C26.41 74.1406 26.2537 73.9796 26.0691 73.8494C25.8868 73.7169 25.6844 73.6174 25.4618 73.5511C25.2393 73.4848 25.0073 73.4517 24.7658 73.4517C24.3255 73.4517 23.9266 73.563 23.5691 73.7855C23.214 74.008 22.931 74.3359 22.7203 74.7692C22.512 75.2024 22.4078 75.7339 22.4078 76.3636C22.4078 76.9934 22.512 77.5249 22.7203 77.9581C22.931 78.3913 23.214 78.7192 23.5691 78.9418C23.9266 79.1643 24.3255 79.2756 24.7658 79.2756C25.0073 79.2756 25.2393 79.2424 25.4618 79.1761C25.6844 79.1098 25.8868 79.0116 26.0691 78.8814C26.2537 78.7488 26.41 78.5866 26.5378 78.3949C26.668 78.2008 26.7592 77.9782 26.8113 77.7273H27.6919C27.6257 78.099 27.5049 78.4316 27.3297 78.7251C27.1545 79.0187 26.9367 79.2685 26.6763 79.4744C26.4159 79.678 26.1235 79.8331 25.7992 79.9396C25.4772 80.0462 25.1328 80.0994 24.7658 80.0994C24.1455 80.0994 23.5939 79.9479 23.111 79.6449C22.628 79.3419 22.248 78.911 21.9711 78.3523C21.6941 77.7936 21.5556 77.1307 21.5556 76.3636C21.5556 75.5966 21.6941 74.9337 21.9711 74.375C22.248 73.8163 22.628 73.3854 23.111 73.0824C23.5939 72.7794 24.1455 72.6278 24.7658 72.6278C25.1328 72.6278 25.4772 72.6811 25.7992 72.7876C26.1235 72.8942 26.4159 73.0504 26.6763 73.2564C26.9367 73.46 27.1545 73.7086 27.3297 74.0021C27.5049 74.2933 27.6257 74.6259 27.6919 75ZM29.4134 80H28.4901L31.1605 72.7273H32.0696L34.7401 80H33.8168L31.6435 73.8778H31.5866L29.4134 80ZM29.7543 77.1591H33.4759V77.9403H29.7543V77.1591ZM35.8729 80V72.7273H36.7536V79.2188H40.1342V80H35.8729ZM45.4751 74.5455C45.4325 74.1856 45.2597 73.9062 44.9567 73.7074C44.6536 73.5085 44.282 73.4091 43.8416 73.4091C43.5196 73.4091 43.2379 73.4612 42.9964 73.5653C42.7573 73.6695 42.5703 73.8127 42.4354 73.995C42.3028 74.1773 42.2365 74.3845 42.2365 74.6165C42.2365 74.8106 42.2827 74.9775 42.375 75.1172C42.4697 75.2545 42.5904 75.3693 42.7372 75.4616C42.884 75.5516 43.0379 75.6262 43.1989 75.6854C43.3598 75.7422 43.5078 75.7884 43.6428 75.8239L44.3814 76.0227C44.5708 76.0724 44.7815 76.1411 45.0135 76.2287C45.2479 76.3163 45.4716 76.4358 45.6847 76.5874C45.9001 76.7365 46.0777 76.9283 46.2173 77.1626C46.357 77.397 46.4268 77.6847 46.4268 78.0256C46.4268 78.4186 46.3239 78.7737 46.1179 79.0909C45.9143 79.4081 45.616 79.6603 45.223 79.8473C44.8324 80.0343 44.3577 80.1278 43.799 80.1278C43.2782 80.1278 42.8272 80.0438 42.446 79.8757C42.0672 79.7076 41.7689 79.4732 41.5511 79.1726C41.3357 78.8719 41.2138 78.5227 41.1854 78.125H42.0945C42.1181 78.3996 42.2105 78.6269 42.3714 78.8068C42.5348 78.9844 42.7408 79.117 42.9893 79.2045C43.2403 79.2898 43.5102 79.3324 43.799 79.3324C44.1352 79.3324 44.437 79.2779 44.7045 79.169C44.9721 79.0578 45.1839 78.9039 45.3402 78.7074C45.4964 78.5085 45.5746 78.2765 45.5746 78.0114C45.5746 77.7699 45.5071 77.5734 45.3722 77.4219C45.2372 77.2704 45.0597 77.1473 44.8395 77.0526C44.6193 76.9579 44.3814 76.875 44.1257 76.804L43.2308 76.5483C42.6626 76.3849 42.2128 76.1518 41.8814 75.8487C41.55 75.5457 41.3842 75.1491 41.3842 74.6591C41.3842 74.2519 41.4943 73.8968 41.7145 73.5938C41.937 73.2884 42.2353 73.0516 42.6094 72.8835C42.9858 72.7131 43.406 72.6278 43.87 72.6278C44.3388 72.6278 44.7554 72.7119 45.12 72.88C45.4846 73.0457 45.7734 73.273 45.9865 73.5618C46.2019 73.8506 46.3156 74.1785 46.3274 74.5455H45.4751ZM47.4771 73.5085V72.7273H52.9316V73.5085H50.6447V80H49.764V73.5085H47.4771ZM53.7395 80H52.8162L55.4867 72.7273H56.3958L59.0662 80H58.1429L55.9696 73.8778H55.9128L53.7395 80ZM54.0804 77.1591H57.802V77.9403H54.0804V77.1591ZM65.7095 75H64.8288C64.7768 74.7467 64.6856 74.5241 64.5554 74.3324C64.4276 74.1406 64.2713 73.9796 64.0866 73.8494C63.9044 73.7169 63.7019 73.6174 63.4794 73.5511C63.2569 73.4848 63.0249 73.4517 62.7834 73.4517C62.343 73.4517 61.9441 73.563 61.5866 73.7855C61.2315 74.008 60.9486 74.3359 60.7379 74.7692C60.5296 75.2024 60.4254 75.7339 60.4254 76.3636C60.4254 76.9934 60.5296 77.5249 60.7379 77.9581C60.9486 78.3913 61.2315 78.7192 61.5866 78.9418C61.9441 79.1643 62.343 79.2756 62.7834 79.2756C63.0249 79.2756 63.2569 79.2424 63.4794 79.1761C63.7019 79.1098 63.9044 79.0116 64.0866 78.8814C64.2713 78.7488 64.4276 78.5866 64.5554 78.3949C64.6856 78.2008 64.7768 77.9782 64.8288 77.7273H65.7095C65.6432 78.099 65.5225 78.4316 65.3473 78.7251C65.1721 79.0187 64.9543 79.2685 64.6939 79.4744C64.4335 79.678 64.1411 79.8331 63.8168 79.9396C63.4948 80.0462 63.1503 80.0994 62.7834 80.0994C62.1631 80.0994 61.6115 79.9479 61.1286 79.6449C60.6456 79.3419 60.2656 78.911 59.9886 78.3523C59.7116 77.7936 59.5732 77.1307 59.5732 76.3636C59.5732 75.5966 59.7116 74.9337 59.9886 74.375C60.2656 73.8163 60.6456 73.3854 61.1286 73.0824C61.6115 72.7794 62.1631 72.6278 62.7834 72.6278C63.1503 72.6278 63.4948 72.6811 63.8168 72.7876C64.1411 72.8942 64.4335 73.0504 64.6939 73.2564C64.9543 73.46 65.1721 73.7086 65.3473 74.0021C65.5225 74.2933 65.6432 74.6259 65.7095 75ZM67.1326 80V72.7273H68.0133V76.3352H68.0985L71.3656 72.7273H72.5162L69.4622 76.0085L72.5162 80H71.4508L68.9224 76.6193L68.0133 77.642V80H67.1326Z" fill="#7B1FA2"/>
</svg>
