<svg width="80" height="80" viewBox="0 0 80 80" fill="none" xmlns="http://www.w3.org/2000/svg">
<rect width="80" height="80" fill="white"/>
<path d="M8.65341 2.72727H9.53409V7.54261C9.53409 8.03977 9.4169 8.48366 9.18253 8.87429C8.95052 9.26255 8.62263 9.56913 8.19886 9.79403C7.77509 10.0166 7.27794 10.1278 6.70739 10.1278C6.13684 10.1278 5.63968 10.0166 5.21591 9.79403C4.79214 9.56913 4.46307 9.26255 4.22869 8.87429C3.99669 8.48366 3.88068 8.03977 3.88068 7.54261V2.72727H4.76136V7.47159C4.76136 7.8267 4.83949 8.14276 4.99574 8.41974C5.15199 8.69437 5.37453 8.91098 5.66335 9.0696C5.95455 9.22585 6.30256 9.30398 6.70739 9.30398C7.11222 9.30398 7.46023 9.22585 7.75142 9.0696C8.04261 8.91098 8.26515 8.69437 8.41903 8.41974C8.57528 8.14276 8.65341 7.8267 8.65341 7.47159V2.72727ZM12.1735 2.72727V10H11.2928V2.72727H12.1735Z" fill="#7B1FA2"/>
<path d="M15.2273 60V25.0909H19.4545V56.25H35.6818V60H15.2273ZM61.3182 33.8182C61.1136 32.0909 60.2841 30.75 58.8295 29.7955C57.375 28.8409 55.5909 28.3636 53.4773 28.3636C51.9318 28.3636 50.5795 28.6136 49.4205 29.1136C48.2727 29.6136 47.375 30.3011 46.7273 31.1761C46.0909 32.0511 45.7727 33.0455 45.7727 34.1591C45.7727 35.0909 45.9943 35.892 46.4375 36.5625C46.892 37.2216 47.4716 37.7727 48.1761 38.2159C48.8807 38.6477 49.6193 39.0057 50.392 39.2898C51.1648 39.5625 51.875 39.7841 52.5227 39.9545L56.0682 40.9091C56.9773 41.1477 57.9886 41.4773 59.1023 41.8977C60.2273 42.3182 61.3011 42.892 62.3239 43.6193C63.358 44.3352 64.2102 45.2557 64.8807 46.3807C65.5511 47.5057 65.8864 48.8864 65.8864 50.5227C65.8864 52.4091 65.392 54.1136 64.4034 55.6364C63.4261 57.1591 61.9943 58.3693 60.108 59.267C58.233 60.1648 55.9545 60.6136 53.2727 60.6136C50.7727 60.6136 48.608 60.2102 46.7784 59.4034C44.9602 58.5966 43.5284 57.4716 42.483 56.0284C41.4489 54.5852 40.8636 52.9091 40.7273 51H45.0909C45.2045 52.3182 45.6477 53.4091 46.4205 54.2727C47.2045 55.125 48.1932 55.7614 49.3864 56.1818C50.5909 56.5909 51.8864 56.7955 53.2727 56.7955C54.8864 56.7955 56.3352 56.5341 57.6193 56.0114C58.9034 55.4773 59.9205 54.7386 60.6705 53.7955C61.4205 52.8409 61.7955 51.7273 61.7955 50.4545C61.7955 49.2955 61.4716 48.3523 60.8239 47.625C60.1761 46.8977 59.3239 46.3068 58.267 45.8523C57.2102 45.3977 56.0682 45 54.8409 44.6591L50.5455 43.4318C47.8182 42.6477 45.6591 41.5284 44.0682 40.0739C42.4773 38.6193 41.6818 36.7159 41.6818 34.3636C41.6818 32.4091 42.2102 30.7045 43.267 29.25C44.3352 27.7841 45.767 26.6477 47.5625 25.8409C49.3693 25.0227 51.3864 24.6136 53.6136 24.6136C55.8636 24.6136 57.8636 25.017 59.6136 25.8239C61.3636 26.6193 62.75 27.7102 63.7727 29.0966C64.8068 30.483 65.3523 32.0568 65.4091 33.8182H61.3182Z" fill="#7B1FA2"/>
<path d="M8.88068 75V67.7273H9.76136V74.2188H13.142V75H8.88068ZM20.3588 71.3636C20.3588 72.1307 20.2203 72.7936 19.9434 73.3523C19.6664 73.911 19.2864 74.3419 18.8034 74.6449C18.3205 74.9479 17.7689 75.0994 17.1486 75.0994C16.5284 75.0994 15.9767 74.9479 15.4938 74.6449C15.0108 74.3419 14.6309 73.911 14.3539 73.3523C14.0769 72.7936 13.9384 72.1307 13.9384 71.3636C13.9384 70.5966 14.0769 69.9337 14.3539 69.375C14.6309 68.8163 15.0108 68.3854 15.4938 68.0824C15.9767 67.7794 16.5284 67.6278 17.1486 67.6278C17.7689 67.6278 18.3205 67.7794 18.8034 68.0824C19.2864 68.3854 19.6664 68.8163 19.9434 69.375C20.2203 69.9337 20.3588 70.5966 20.3588 71.3636ZM19.5066 71.3636C19.5066 70.7339 19.4012 70.2024 19.1905 69.7692C18.9822 69.3359 18.6993 69.008 18.3418 68.7855C17.9867 68.563 17.589 68.4517 17.1486 68.4517C16.7083 68.4517 16.3094 68.563 15.9519 68.7855C15.5968 69.008 15.3139 69.3359 15.1032 69.7692C14.8948 70.2024 14.7907 70.7339 14.7907 71.3636C14.7907 71.9934 14.8948 72.5249 15.1032 72.9581C15.3139 73.3913 15.5968 73.7192 15.9519 73.9418C16.3094 74.1643 16.7083 74.2756 17.1486 74.2756C17.589 74.2756 17.9867 74.1643 18.3418 73.9418C18.6993 73.7192 18.9822 73.3913 19.1905 72.9581C19.4012 72.5249 19.5066 71.9934 19.5066 71.3636ZM27.6919 70H26.8113C26.7592 69.7467 26.668 69.5241 26.5378 69.3324C26.41 69.1406 26.2537 68.9796 26.0691 68.8494C25.8868 68.7169 25.6844 68.6174 25.4618 68.5511C25.2393 68.4848 25.0073 68.4517 24.7658 68.4517C24.3255 68.4517 23.9266 68.563 23.5691 68.7855C23.214 69.008 22.931 69.3359 22.7203 69.7692C22.512 70.2024 22.4078 70.7339 22.4078 71.3636C22.4078 71.9934 22.512 72.5249 22.7203 72.9581C22.931 73.3913 23.214 73.7192 23.5691 73.9418C23.9266 74.1643 24.3255 74.2756 24.7658 74.2756C25.0073 74.2756 25.2393 74.2424 25.4618 74.1761C25.6844 74.1098 25.8868 74.0116 26.0691 73.8814C26.2537 73.7488 26.41 73.5866 26.5378 73.3949C26.668 73.2008 26.7592 72.9782 26.8113 72.7273H27.6919C27.6257 73.099 27.5049 73.4316 27.3297 73.7251C27.1545 74.0187 26.9367 74.2685 26.6763 74.4744C26.4159 74.678 26.1235 74.8331 25.7992 74.9396C25.4772 75.0462 25.1328 75.0994 24.7658 75.0994C24.1455 75.0994 23.5939 74.9479 23.111 74.6449C22.628 74.3419 22.248 73.911 21.9711 73.3523C21.6941 72.7936 21.5556 72.1307 21.5556 71.3636C21.5556 70.5966 21.6941 69.9337 21.9711 69.375C22.248 68.8163 22.628 68.3854 23.111 68.0824C23.5939 67.7794 24.1455 67.6278 24.7658 67.6278C25.1328 67.6278 25.4772 67.6811 25.7992 67.7876C26.1235 67.8942 26.4159 68.0504 26.6763 68.2564C26.9367 68.46 27.1545 68.7086 27.3297 69.0021C27.5049 69.2933 27.6257 69.6259 27.6919 70ZM29.4134 75H28.4901L31.1605 67.7273H32.0696L34.7401 75H33.8168L31.6435 68.8778H31.5866L29.4134 75ZM29.7543 72.1591H33.4759V72.9403H29.7543V72.1591ZM35.8729 75V67.7273H36.7536V74.2188H40.1342V75H35.8729ZM45.4751 69.5455C45.4325 69.1856 45.2597 68.9062 44.9567 68.7074C44.6536 68.5085 44.282 68.4091 43.8416 68.4091C43.5196 68.4091 43.2379 68.4612 42.9964 68.5653C42.7573 68.6695 42.5703 68.8127 42.4354 68.995C42.3028 69.1773 42.2365 69.3845 42.2365 69.6165C42.2365 69.8106 42.2827 69.9775 42.375 70.1172C42.4697 70.2545 42.5904 70.3693 42.7372 70.4616C42.884 70.5516 43.0379 70.6262 43.1989 70.6854C43.3598 70.7422 43.5078 70.7884 43.6428 70.8239L44.3814 71.0227C44.5708 71.0724 44.7815 71.1411 45.0135 71.2287C45.2479 71.3163 45.4716 71.4358 45.6847 71.5874C45.9001 71.7365 46.0777 71.9283 46.2173 72.1626C46.357 72.397 46.4268 72.6847 46.4268 73.0256C46.4268 73.4186 46.3239 73.7737 46.1179 74.0909C45.9143 74.4081 45.616 74.6603 45.223 74.8473C44.8324 75.0343 44.3577 75.1278 43.799 75.1278C43.2782 75.1278 42.8272 75.0438 42.446 74.8757C42.0672 74.7076 41.7689 74.4732 41.5511 74.1726C41.3357 73.8719 41.2138 73.5227 41.1854 73.125H42.0945C42.1181 73.3996 42.2105 73.6269 42.3714 73.8068C42.5348 73.9844 42.7408 74.117 42.9893 74.2045C43.2403 74.2898 43.5102 74.3324 43.799 74.3324C44.1352 74.3324 44.437 74.2779 44.7045 74.169C44.9721 74.0578 45.1839 73.9039 45.3402 73.7074C45.4964 73.5085 45.5746 73.2765 45.5746 73.0114C45.5746 72.7699 45.5071 72.5734 45.3722 72.4219C45.2372 72.2704 45.0597 72.1473 44.8395 72.0526C44.6193 71.9579 44.3814 71.875 44.1257 71.804L43.2308 71.5483C42.6626 71.3849 42.2128 71.1518 41.8814 70.8487C41.55 70.5457 41.3842 70.1491 41.3842 69.6591C41.3842 69.2519 41.4943 68.8968 41.7145 68.5938C41.937 68.2884 42.2353 68.0516 42.6094 67.8835C42.9858 67.7131 43.406 67.6278 43.87 67.6278C44.3388 67.6278 44.7554 67.7119 45.12 67.88C45.4846 68.0457 45.7734 68.273 45.9865 68.5618C46.2019 68.8506 46.3156 69.1785 46.3274 69.5455H45.4751ZM47.4771 68.5085V67.7273H52.9316V68.5085H50.6447V75H49.764V68.5085H47.4771ZM53.7395 75H52.8162L55.4867 67.7273H56.3958L59.0662 75H58.1429L55.9696 68.8778H55.9128L53.7395 75ZM54.0804 72.1591H57.802V72.9403H54.0804V72.1591ZM65.7095 70H64.8288C64.7768 69.7467 64.6856 69.5241 64.5554 69.3324C64.4276 69.1406 64.2713 68.9796 64.0866 68.8494C63.9044 68.7169 63.7019 68.6174 63.4794 68.5511C63.2569 68.4848 63.0249 68.4517 62.7834 68.4517C62.343 68.4517 61.9441 68.563 61.5866 68.7855C61.2315 69.008 60.9486 69.3359 60.7379 69.7692C60.5296 70.2024 60.4254 70.7339 60.4254 71.3636C60.4254 71.9934 60.5296 72.5249 60.7379 72.9581C60.9486 73.3913 61.2315 73.7192 61.5866 73.9418C61.9441 74.1643 62.343 74.2756 62.7834 74.2756C63.0249 74.2756 63.2569 74.2424 63.4794 74.1761C63.7019 74.1098 63.9044 74.0116 64.0866 73.8814C64.2713 73.7488 64.4276 73.5866 64.5554 73.3949C64.6856 73.2008 64.7768 72.9782 64.8288 72.7273H65.7095C65.6432 73.099 65.5225 73.4316 65.3473 73.7251C65.1721 74.0187 64.9543 74.2685 64.6939 74.4744C64.4335 74.678 64.1411 74.8331 63.8168 74.9396C63.4948 75.0462 63.1503 75.0994 62.7834 75.0994C62.1631 75.0994 61.6115 74.9479 61.1286 74.6449C60.6456 74.3419 60.2656 73.911 59.9886 73.3523C59.7116 72.7936 59.5732 72.1307 59.5732 71.3636C59.5732 70.5966 59.7116 69.9337 59.9886 69.375C60.2656 68.8163 60.6456 68.3854 61.1286 68.0824C61.6115 67.7794 62.1631 67.6278 62.7834 67.6278C63.1503 67.6278 63.4948 67.6811 63.8168 67.7876C64.1411 67.8942 64.4335 68.0504 64.6939 68.2564C64.9543 68.46 65.1721 68.7086 65.3473 69.0021C65.5225 69.2933 65.6432 69.6259 65.7095 70ZM67.1326 75V67.7273H68.0133V71.3352H68.0985L71.3656 67.7273H72.5162L69.4622 71.0085L72.5162 75H71.4508L68.9224 71.6193L68.0133 72.642V75H67.1326Z" fill="#7B1FA2"/>

</svg>
